# xmcd
#
# Track frame offsets:
#	150
#	19222
#	32701
#	45044
#	63561
#	76510
#	95668
#	107204
#	131741
#	147751
#	158381
#	172092
#	186025
#	200559
#	218260
#	232967
#	247154
#	259499
#	272220
#	285485
#
# Disc length: 4007 seconds
#
# Revision: 1
# Processed by: cddbd v1.5.2PL0 Copyright (c) Steve Scherf et al.
# Submitted via: audiograbber 1.83.01
#
DISCID=160fa514
DTITLE=D.C. and The Cruisers - Never far from a bar
DYEAR=2003
DGENRE=Blues
TTITLE0=When I get drunk
TTITLE1=Wait on time
TTITLE2=Some people can't dance
TTITLE3=24 hours of the day
TTITLE4=You're humbugging me
TTITLE5=Don't touch me baby
TTITLE6=You left the water running
TTITLE7=You ain't like you use to be
TTITLE8=Howling for my baby
TTITLE9=Guard my heart
TTITLE10=Can't stop loving
TTITLE11=Move it on over
TTITLE12=Instinct to survive
TTITLE13=Taxi driver
TTITLE14=Mail order mojo
TTITLE15=Hog for you baby
TTITLE16=Hi heel sneakers
TTITLE17=Palace of the king
TTITLE18=Memphis Tennessee
TTITLE19=If you leave me
EXTD=Recorded live at the "Kaktus" in Twistringen
EXTT0=
EXTT1=
EXTT2=
EXTT3=
EXTT4=
EXTT5=
EXTT6=
EXTT7=
EXTT8=
EXTT9=
EXTT10=
EXTT11=
EXTT12=
EXTT13=
EXTT14=
EXTT15=
EXTT16=
EXTT17=
EXTT18=
EXTT19=
PLAYORDER=
